<svg width="76" height="49" viewBox="0 0 76 49" fill="none" xmlns="http://www.w3.org/2000/svg">
<path d="M20.9328 45V37.7273H25.4925V38.6719H22.0301V40.8878H25.2545V41.8288H22.0301V44.0554H25.5351V45H20.9328ZM27.711 39.5455L28.9149 41.669L30.1294 39.5455H31.2906L29.5896 42.2727L31.3048 45H30.1436L28.9149 42.9616L27.6897 45H26.5249L28.2224 42.2727L26.5463 39.5455H27.711ZM32.3808 47.0455V39.5455H33.4177V40.4297H33.5065C33.568 40.3161 33.6568 40.1847 33.7728 40.0355C33.8888 39.8864 34.0498 39.7562 34.2558 39.6449C34.4617 39.5312 34.734 39.4744 35.0725 39.4744C35.5129 39.4744 35.9059 39.5857 36.2515 39.8082C36.5972 40.0308 36.8682 40.3516 37.0647 40.7706C37.2636 41.1896 37.363 41.6939 37.363 42.2834C37.363 42.8729 37.2648 43.3783 37.0683 43.7997C36.8718 44.2187 36.6019 44.5419 36.2586 44.7692C35.9153 44.9941 35.5235 45.1065 35.0832 45.1065C34.7517 45.1065 34.4807 45.0509 34.27 44.9396C34.0616 44.8284 33.8983 44.6982 33.7799 44.549C33.6615 44.3999 33.5704 44.2673 33.5065 44.1513H33.4426V47.0455H32.3808ZM33.4213 42.2727C33.4213 42.6562 33.4769 42.9924 33.5882 43.2812C33.6994 43.5701 33.8604 43.7962 34.0711 43.9595C34.2818 44.1205 34.5399 44.201 34.8453 44.201C35.1625 44.201 35.4276 44.117 35.6407 43.9489C35.8538 43.7784 36.0148 43.5476 36.1237 43.2564C36.2349 42.9652 36.2906 42.6373 36.2906 42.2727C36.2906 41.9129 36.2361 41.5897 36.1272 41.3033C36.0207 41.0168 35.8597 40.7907 35.6443 40.625C35.4312 40.4593 35.1649 40.3764 34.8453 40.3764C34.5375 40.3764 34.2771 40.4557 34.064 40.6143C33.8533 40.773 33.6935 40.9943 33.5846 41.2784C33.4757 41.5625 33.4213 41.8939 33.4213 42.2727ZM39.6144 37.7273V45H38.5526V37.7273H39.6144ZM43.3405 45.1101C42.8291 45.1101 42.3828 44.9929 42.0017 44.7585C41.6205 44.5241 41.3246 44.1963 41.1139 43.7749C40.9032 43.3535 40.7979 42.861 40.7979 42.2976C40.7979 41.7318 40.9032 41.237 41.1139 40.8132C41.3246 40.3894 41.6205 40.0604 42.0017 39.826C42.3828 39.5916 42.8291 39.4744 43.3405 39.4744C43.8518 39.4744 44.2981 39.5916 44.6792 39.826C45.0604 40.0604 45.3563 40.3894 45.567 40.8132C45.7777 41.237 45.8831 41.7318 45.8831 42.2976C45.8831 42.861 45.7777 43.3535 45.567 43.7749C45.3563 44.1963 45.0604 44.5241 44.6792 44.7585C44.2981 44.9929 43.8518 45.1101 43.3405 45.1101ZM43.344 44.2188C43.6755 44.2188 43.9501 44.1312 44.1679 43.956C44.3857 43.7808 44.5467 43.5476 44.6508 43.2564C44.7574 42.9652 44.8106 42.6444 44.8106 42.294C44.8106 41.946 44.7574 41.6264 44.6508 41.3352C44.5467 41.0417 44.3857 40.8061 44.1679 40.6286C43.9501 40.451 43.6755 40.3622 43.344 40.3622C43.0102 40.3622 42.7332 40.451 42.5131 40.6286C42.2952 40.8061 42.1331 41.0417 42.0265 41.3352C41.9224 41.6264 41.8703 41.946 41.8703 42.294C41.8703 42.6444 41.9224 42.9652 42.0265 43.2564C42.1331 43.5476 42.2952 43.7808 42.5131 43.956C42.7332 44.1312 43.0102 44.2188 43.344 44.2188ZM47.0683 45V39.5455H48.0945V40.4119H48.1514C48.2508 40.1184 48.426 39.8875 48.6769 39.7195C48.9302 39.549 49.2167 39.4638 49.5363 39.4638C49.6026 39.4638 49.6807 39.4661 49.7707 39.4709C49.863 39.4756 49.9352 39.4815 49.9873 39.4886V40.5043C49.9447 40.4924 49.8689 40.4794 49.76 40.4652C49.6511 40.4486 49.5422 40.4403 49.4333 40.4403C49.1824 40.4403 48.9587 40.4936 48.7622 40.6001C48.568 40.7043 48.4142 40.8499 48.3005 41.0369C48.1869 41.2216 48.1301 41.4323 48.1301 41.669V45H47.0683ZM53.0617 45.1101C52.5243 45.1101 52.0615 44.9953 51.6732 44.7656C51.2873 44.5336 50.989 44.2081 50.7783 43.7891C50.57 43.3677 50.4658 42.8741 50.4658 42.3082C50.4658 41.7495 50.57 41.2571 50.7783 40.831C50.989 40.4048 51.2826 40.0722 51.659 39.8331C52.0378 39.594 52.4805 39.4744 52.9871 39.4744C53.2949 39.4744 53.5932 39.5253 53.882 39.6271C54.1708 39.7289 54.4301 39.8887 54.6597 40.1065C54.8894 40.3243 55.0705 40.6072 55.203 40.9553C55.3356 41.3009 55.4019 41.7211 55.4019 42.2159V42.5923H51.066V41.7969H54.3614C54.3614 41.5175 54.3046 41.2701 54.191 41.0547C54.0773 40.8369 53.9175 40.6652 53.7116 40.5398C53.508 40.4143 53.2689 40.3516 52.9942 40.3516C52.6959 40.3516 52.4355 40.425 52.213 40.5717C51.9928 40.7161 51.8224 40.9055 51.7016 41.1399C51.5832 41.3719 51.5241 41.6241 51.5241 41.8963V42.5178C51.5241 42.8823 51.588 43.1925 51.7158 43.4482C51.846 43.7038 52.0271 43.8991 52.2591 44.0341C52.4912 44.1667 52.7622 44.233 53.0724 44.233C53.2736 44.233 53.4571 44.2045 53.6228 44.1477C53.7885 44.0885 53.9317 44.0009 54.0525 43.8849C54.1732 43.7689 54.2655 43.6257 54.3295 43.4553L55.3344 43.6364C55.2539 43.9323 55.1095 44.1915 54.9012 44.4141C54.6952 44.6342 54.436 44.8059 54.1235 44.929C53.8134 45.0497 53.4594 45.1101 53.0617 45.1101Z" fill="#6C6C76"/>
<path d="M38 29C42.9706 29 47 24.9706 47 20C47 15.0294 42.9706 11 38 11C33.0294 11 29 15.0294 29 20C29 24.9706 33.0294 29 38 29Z" stroke="#6C6C76" stroke-width="1.5" stroke-linecap="round" stroke-linejoin="round"/>
<path d="M37.307 17.739L41 17L40.261 20.693C40.1836 21.0801 39.9935 21.4356 39.7144 21.7148C39.4354 21.994 39.08 22.1844 38.693 22.262L35 23L35.739 19.307C35.8165 18.9201 36.0068 18.5648 36.2858 18.2858C36.5648 18.0068 36.9201 17.8165 37.307 17.739Z" stroke="#6C6C76" stroke-width="1.5" stroke-linecap="round" stroke-linejoin="round"/>
</svg>
