<svg width="76" height="49" viewBox="0 0 76 49" fill="none" xmlns="http://www.w3.org/2000/svg">
<path d="M21.9846 45V37.7273H23.0819V40.8878H26.7076V37.7273H27.8084V45H26.7076V41.8288H23.0819V45H21.9846ZM29.3212 45V39.5455H30.383V45H29.3212ZM29.8574 38.7038C29.6728 38.7038 29.5141 38.6423 29.3816 38.5192C29.2514 38.3937 29.1863 38.2446 29.1863 38.0717C29.1863 37.8965 29.2514 37.7474 29.3816 37.6243C29.5141 37.4988 29.6728 37.4361 29.8574 37.4361C30.0421 37.4361 30.1995 37.4988 30.3297 37.6243C30.4623 37.7474 30.5286 37.8965 30.5286 38.0717C30.5286 38.2446 30.4623 38.3937 30.3297 38.5192C30.1995 38.6423 30.0421 38.7038 29.8574 38.7038ZM35.8988 40.8771L34.9364 41.0476C34.8962 40.9245 34.8323 40.8073 34.7447 40.696C34.6594 40.5848 34.5434 40.4936 34.3967 40.4226C34.2499 40.3516 34.0664 40.3161 33.8462 40.3161C33.5456 40.3161 33.2946 40.3835 33.0934 40.5185C32.8922 40.651 32.7915 40.8227 32.7915 41.0334C32.7915 41.2157 32.859 41.3625 32.994 41.4737C33.1289 41.585 33.3467 41.6761 33.6474 41.7472L34.5138 41.946C35.0157 42.062 35.3898 42.2408 35.636 42.4822C35.8822 42.7237 36.0053 43.0374 36.0053 43.4233C36.0053 43.75 35.9106 44.0412 35.7212 44.2969C35.5342 44.5502 35.2726 44.7491 34.9364 44.8935C34.6026 45.0379 34.2156 45.1101 33.7752 45.1101C33.1644 45.1101 32.6661 44.9799 32.2802 44.7195C31.8943 44.4567 31.6576 44.0838 31.57 43.6009L32.5962 43.4446C32.6602 43.7121 32.7915 43.9145 32.9904 44.0518C33.1893 44.1868 33.4485 44.2543 33.7681 44.2543C34.1161 44.2543 34.3943 44.1821 34.6026 44.0376C34.811 43.8909 34.9151 43.7121 34.9151 43.5014C34.9151 43.331 34.8512 43.1877 34.7234 43.0717C34.5979 42.9557 34.4049 42.8681 34.1445 42.8089L33.2212 42.6065C32.7122 42.4905 32.3358 42.3059 32.092 42.0526C31.8505 41.7992 31.7298 41.4785 31.7298 41.0902C31.7298 40.7682 31.8197 40.4865 31.9996 40.245C32.1796 40.0036 32.4281 39.8153 32.7454 39.6804C33.0626 39.5431 33.426 39.4744 33.8356 39.4744C34.4251 39.4744 34.8891 39.6023 35.2276 39.858C35.5662 40.1113 35.7899 40.451 35.8988 40.8771ZM39.7189 39.5455V40.3977H36.7395V39.5455H39.7189ZM37.5385 38.2386H38.6003V43.3984C38.6003 43.6044 38.6311 43.7595 38.6926 43.8636C38.7542 43.9654 38.8335 44.0353 38.9306 44.0732C39.03 44.1087 39.1377 44.1264 39.2537 44.1264C39.339 44.1264 39.4135 44.1205 39.4775 44.1087C39.5414 44.0968 39.5911 44.0874 39.6266 44.0803L39.8184 44.9574C39.7568 44.9811 39.6692 45.0047 39.5556 45.0284C39.4419 45.0545 39.2999 45.0687 39.1294 45.071C38.8501 45.0758 38.5897 45.026 38.3482 44.9219C38.1067 44.8177 37.9114 44.6567 37.7623 44.4389C37.6131 44.2211 37.5385 43.9477 37.5385 43.6186V38.2386ZM43.1325 45.1101C42.6211 45.1101 42.1748 44.9929 41.7937 44.7585C41.4125 44.5241 41.1166 44.1963 40.9059 43.7749C40.6952 43.3535 40.5898 42.861 40.5898 42.2976C40.5898 41.7318 40.6952 41.237 40.9059 40.8132C41.1166 40.3894 41.4125 40.0604 41.7937 39.826C42.1748 39.5916 42.6211 39.4744 43.1325 39.4744C43.6438 39.4744 44.0901 39.5916 44.4712 39.826C44.8524 40.0604 45.1483 40.3894 45.359 40.8132C45.5697 41.237 45.6751 41.7318 45.6751 42.2976C45.6751 42.861 45.5697 43.3535 45.359 43.7749C45.1483 44.1963 44.8524 44.5241 44.4712 44.7585C44.0901 44.9929 43.6438 45.1101 43.1325 45.1101ZM43.136 44.2188C43.4674 44.2188 43.7421 44.1312 43.9599 43.956C44.1777 43.7808 44.3387 43.5476 44.4428 43.2564C44.5494 42.9652 44.6026 42.6444 44.6026 42.294C44.6026 41.946 44.5494 41.6264 44.4428 41.3352C44.3387 41.0417 44.1777 40.8061 43.9599 40.6286C43.7421 40.451 43.4674 40.3622 43.136 40.3622C42.8022 40.3622 42.5252 40.451 42.305 40.6286C42.0872 40.8061 41.9251 41.0417 41.8185 41.3352C41.7144 41.6264 41.6623 41.946 41.6623 42.294C41.6623 42.6444 41.7144 42.9652 41.8185 43.2564C41.9251 43.5476 42.0872 43.7808 42.305 43.956C42.5252 44.1312 42.8022 44.2188 43.136 44.2188ZM46.8603 45V39.5455H47.8865V40.4119H47.9434C48.0428 40.1184 48.218 39.8875 48.4689 39.7195C48.7222 39.549 49.0087 39.4638 49.3283 39.4638C49.3946 39.4638 49.4727 39.4661 49.5627 39.4709C49.655 39.4756 49.7272 39.4815 49.7793 39.4886V40.5043C49.7367 40.4924 49.6609 40.4794 49.552 40.4652C49.4431 40.4486 49.3342 40.4403 49.2253 40.4403C48.9744 40.4403 48.7507 40.4936 48.5542 40.6001C48.36 40.7043 48.2061 40.8499 48.0925 41.0369C47.9789 41.2216 47.9221 41.4323 47.9221 41.669V45H46.8603ZM51.5353 47.0455C51.3767 47.0455 51.2323 47.0324 51.1021 47.0064C50.9719 46.9827 50.8748 46.9567 50.8109 46.9283L51.0666 46.0582C51.2607 46.1103 51.4335 46.1328 51.585 46.1257C51.7366 46.1186 51.8703 46.0618 51.9863 45.9553C52.1047 45.8487 52.2089 45.6747 52.2988 45.4332L52.4302 45.071L50.4345 39.5455H51.5708L52.9522 43.7784H53.0091L54.3904 39.5455H55.5304L53.2825 45.728C53.1783 46.0121 53.0458 46.2524 52.8848 46.4489C52.7238 46.6477 52.532 46.7969 52.3095 46.8963C52.0869 46.9957 51.8289 47.0455 51.5353 47.0455Z" fill="#6C6C76"/>
<path d="M32.636 26.364C34.1084 27.8365 36.0459 28.7528 38.1183 28.9568C40.1906 29.1608 42.2696 28.6399 44.0009 27.4828C45.7322 26.3257 47.0087 24.6041 47.6129 22.6113C48.217 20.6185 48.1115 18.4778 47.3142 16.5541C46.5169 14.6305 45.0772 13.0428 43.2404 12.0616C41.4037 11.0805 39.2835 10.7667 37.2413 11.1736C35.1991 11.5805 33.3612 12.683 32.0407 14.2932C30.7203 15.9034 29.9991 17.9216 30 20.004V22" stroke="#6C6C76" stroke-width="1.5" stroke-linecap="round" stroke-linejoin="round"/>
<path d="M28 20L30 22L32 20M38 16V21H43" stroke="#6C6C76" stroke-width="1.5" stroke-linecap="round" stroke-linejoin="round"/>
</svg>
