<svg width="76" height="49" viewBox="0 0 76 49" fill="none" xmlns="http://www.w3.org/2000/svg">
<path d="M24.5634 38.6719V37.7273H30.1919V38.6719H27.9228V45H26.829V38.6719H24.5634ZM32.1957 45.1207C31.85 45.1207 31.5375 45.0568 31.2582 44.929C30.9788 44.7988 30.7575 44.6106 30.5941 44.3643C30.4331 44.1181 30.3526 43.8163 30.3526 43.4588C30.3526 43.151 30.4118 42.8977 30.5302 42.6989C30.6486 42.5 30.8084 42.3426 31.0096 42.2266C31.2108 42.1106 31.4357 42.023 31.6843 41.9638C31.9329 41.9046 32.1862 41.8596 32.4442 41.8288C32.771 41.791 33.0361 41.7602 33.2397 41.7365C33.4433 41.7105 33.5913 41.669 33.6836 41.6122C33.7759 41.5554 33.8221 41.4631 33.8221 41.3352V41.3104C33.8221 41.0002 33.7345 40.7599 33.5593 40.5895C33.3865 40.419 33.1284 40.3338 32.7852 40.3338C32.4277 40.3338 32.146 40.4131 31.94 40.5717C31.7364 40.728 31.5955 40.902 31.5174 41.0938L30.5195 40.8665C30.6379 40.535 30.8107 40.2675 31.038 40.0639C31.2676 39.858 31.5316 39.7088 31.8299 39.6165C32.1282 39.5218 32.4419 39.4744 32.771 39.4744C32.9888 39.4744 33.2196 39.5005 33.4634 39.5526C33.7096 39.6023 33.9393 39.6946 34.1523 39.8295C34.3678 39.9645 34.5442 40.1574 34.6815 40.4084C34.8188 40.657 34.8874 40.9801 34.8874 41.3778V45H33.8505V44.2543H33.8079C33.7392 44.3916 33.6362 44.5265 33.4989 44.6591C33.3616 44.7917 33.1853 44.9018 32.9698 44.9893C32.7544 45.0769 32.4963 45.1207 32.1957 45.1207ZM32.4265 44.2685C32.7201 44.2685 32.971 44.2105 33.1793 44.0945C33.39 43.9785 33.5498 43.8269 33.6587 43.6399C33.77 43.4505 33.8256 43.2481 33.8256 43.0327V42.3295C33.7878 42.3674 33.7144 42.4029 33.6055 42.4361C33.4989 42.4669 33.377 42.4941 33.2397 42.5178C33.1024 42.5391 32.9686 42.5592 32.8384 42.5781C32.7082 42.5947 32.5993 42.6089 32.5117 42.6207C32.3058 42.6468 32.1175 42.6906 31.9471 42.7521C31.779 42.8137 31.6441 42.9025 31.5423 43.0185C31.4428 43.1321 31.3931 43.2836 31.3931 43.473C31.3931 43.7358 31.4902 43.9347 31.6843 44.0696C31.8784 44.2022 32.1258 44.2685 32.4265 44.2685ZM40.389 40.8771L39.4267 41.0476C39.3864 40.9245 39.3225 40.8073 39.2349 40.696C39.1497 40.5848 39.0337 40.4936 38.8869 40.4226C38.7401 40.3516 38.5566 40.3161 38.3365 40.3161C38.0358 40.3161 37.7849 40.3835 37.5836 40.5185C37.3824 40.651 37.2818 40.8227 37.2818 41.0334C37.2818 41.2157 37.3493 41.3625 37.4842 41.4737C37.6191 41.585 37.8369 41.6761 38.1376 41.7472L39.0041 41.946C39.506 42.062 39.88 42.2408 40.1262 42.4822C40.3725 42.7237 40.4956 43.0374 40.4956 43.4233C40.4956 43.75 40.4009 44.0412 40.2115 44.2969C40.0244 44.5502 39.7628 44.7491 39.4267 44.8935C39.0929 45.0379 38.7058 45.1101 38.2654 45.1101C37.6547 45.1101 37.1563 44.9799 36.7704 44.7195C36.3845 44.4567 36.1478 44.0838 36.0602 43.6009L37.0865 43.4446C37.1504 43.7121 37.2818 43.9145 37.4806 44.0518C37.6795 44.1868 37.9387 44.2543 38.2583 44.2543C38.6064 44.2543 38.8845 44.1821 39.0929 44.0376C39.3012 43.8909 39.4054 43.7121 39.4054 43.5014C39.4054 43.331 39.3414 43.1877 39.2136 43.0717C39.0881 42.9557 38.8952 42.8681 38.6348 42.8089L37.7115 42.6065C37.2025 42.4905 36.8261 42.3059 36.5822 42.0526C36.3407 41.7992 36.22 41.4785 36.22 41.0902C36.22 40.7682 36.31 40.4865 36.4899 40.245C36.6698 40.0036 36.9184 39.8153 37.2356 39.6804C37.5529 39.5431 37.9163 39.4744 38.3258 39.4744C38.9153 39.4744 39.3793 39.6023 39.7179 39.858C40.0564 40.1113 40.2801 40.451 40.389 40.8771ZM42.6396 43.1499L42.6325 41.8537H42.8171L44.9904 39.5455H46.2617L43.783 42.1733H43.6161L42.6396 43.1499ZM41.663 45V37.7273H42.7248V45H41.663ZM45.1076 45L43.1545 42.4077L43.886 41.6655L46.4109 45H45.1076ZM51.3168 40.8771L50.3544 41.0476C50.3142 40.9245 50.2502 40.8073 50.1626 40.696C50.0774 40.5848 49.9614 40.4936 49.8146 40.4226C49.6679 40.3516 49.4844 40.3161 49.2642 40.3161C48.9635 40.3161 48.7126 40.3835 48.5114 40.5185C48.3101 40.651 48.2095 40.8227 48.2095 41.0334C48.2095 41.2157 48.277 41.3625 48.4119 41.4737C48.5469 41.585 48.7647 41.6761 49.0653 41.7472L49.9318 41.946C50.4337 42.062 50.8078 42.2408 51.054 42.4822C51.3002 42.7237 51.4233 43.0374 51.4233 43.4233C51.4233 43.75 51.3286 44.0412 51.1392 44.2969C50.9522 44.5502 50.6906 44.7491 50.3544 44.8935C50.0206 45.0379 49.6335 45.1101 49.1932 45.1101C48.5824 45.1101 48.084 44.9799 47.6982 44.7195C47.3123 44.4567 47.0755 44.0838 46.9879 43.6009L48.0142 43.4446C48.0781 43.7121 48.2095 43.9145 48.4084 44.0518C48.6072 44.1868 48.8665 44.2543 49.1861 44.2543C49.5341 44.2543 49.8123 44.1821 50.0206 44.0376C50.2289 43.8909 50.3331 43.7121 50.3331 43.5014C50.3331 43.331 50.2692 43.1877 50.1413 43.0717C50.0159 42.9557 49.8229 42.8681 49.5625 42.8089L48.6392 42.6065C48.1302 42.4905 47.7538 42.3059 47.5099 42.0526C47.2685 41.7992 47.1477 41.4785 47.1477 41.0902C47.1477 40.7682 47.2377 40.4865 47.4176 40.245C47.5975 40.0036 47.8461 39.8153 48.1634 39.6804C48.4806 39.5431 48.844 39.4744 49.2536 39.4744C49.843 39.4744 50.3071 39.6023 50.6456 39.858C50.9841 40.1113 51.2079 40.451 51.3168 40.8771Z" fill="#6C6C76"/>
<path d="M34.3979 23.6H37.9979M34.3979 19.1H41.5979M33.9497 12.35C32.5493 12.3923 31.715 12.548 31.1372 13.1258C30.3461 13.9178 30.3461 15.1913 30.3461 17.7392V23.5946C30.3461 26.1434 30.3461 27.4169 31.1372 28.2089C31.9274 29 33.2009 29 35.7461 29H40.2461C42.7922 29 44.0648 29 44.855 28.208C45.647 27.4169 45.647 26.1434 45.647 23.5946V17.7392C45.647 15.1922 45.647 13.9178 44.855 13.1258C44.2781 12.548 43.4429 12.3923 42.0425 12.35" stroke="#6C6C76" stroke-width="1.5" stroke-linecap="round" stroke-linejoin="round"/>
<path d="M33.9461 12.575C33.9461 11.7056 34.6517 11 35.5211 11H40.4711C40.8888 11 41.2894 11.1659 41.5848 11.4613C41.8802 11.7567 42.0461 12.1573 42.0461 12.575C42.0461 12.9927 41.8802 13.3933 41.5848 13.6887C41.2894 13.9841 40.8888 14.15 40.4711 14.15H35.5211C35.1034 14.15 34.7028 13.9841 34.4074 13.6887C34.112 13.3933 33.9461 12.9927 33.9461 12.575Z" stroke="#6C6C76" stroke-width="1.5" stroke-linecap="round" stroke-linejoin="round"/>
</svg>
